<mxfile host="app.diagrams.net" agent="Mozilla/5.0 (X11; Ubuntu; Linux x86_64; rv:141.0) Gecko/20100101 Firefox/141.0" version="28.0.7">
  <diagram name="Page-1" id="IBkn1AV6_XAYANT_Cgsg">
    <mxGraphModel dx="2011" dy="1200" grid="1" gridSize="10" guides="1" tooltips="1" connect="1" arrows="1" fold="1" page="1" pageScale="1" pageWidth="850" pageHeight="1100" math="0" shadow="0">
      <root>
        <mxCell id="0" />
        <mxCell id="1" parent="0" />
        <mxCell id="dDHguk34ElmMT3qhyhON-37" value="" style="rounded=1;whiteSpace=wrap;html=1;" vertex="1" parent="1">
          <mxGeometry x="710" y="500" width="120" height="60" as="geometry" />
        </mxCell>
        <mxCell id="dDHguk34ElmMT3qhyhON-15" value="" style="rounded=1;whiteSpace=wrap;html=1;" vertex="1" parent="1">
          <mxGeometry x="220" y="700" width="120" height="60" as="geometry" />
        </mxCell>
        <mxCell id="dDHguk34ElmMT3qhyhON-14" value="" style="rounded=1;whiteSpace=wrap;html=1;" vertex="1" parent="1">
          <mxGeometry x="210" y="680" width="120" height="60" as="geometry" />
        </mxCell>
        <mxCell id="dDHguk34ElmMT3qhyhON-1" value="Actor" style="shape=umlActor;verticalLabelPosition=bottom;verticalAlign=top;html=1;outlineConnect=0;" vertex="1" parent="1">
          <mxGeometry x="10" y="430" width="30" height="60" as="geometry" />
        </mxCell>
        <mxCell id="dDHguk34ElmMT3qhyhON-2" value="LB" style="rounded=1;whiteSpace=wrap;html=1;" vertex="1" parent="1">
          <mxGeometry x="80" y="70" width="40" height="680" as="geometry" />
        </mxCell>
        <mxCell id="dDHguk34ElmMT3qhyhON-22" value="" style="edgeStyle=orthogonalEdgeStyle;rounded=0;orthogonalLoop=1;jettySize=auto;html=1;" edge="1" parent="1" source="dDHguk34ElmMT3qhyhON-3" target="dDHguk34ElmMT3qhyhON-4">
          <mxGeometry relative="1" as="geometry" />
        </mxCell>
        <mxCell id="dDHguk34ElmMT3qhyhON-3" value="user service" style="rounded=1;whiteSpace=wrap;html=1;" vertex="1" parent="1">
          <mxGeometry x="190" y="80" width="120" height="60" as="geometry" />
        </mxCell>
        <mxCell id="dDHguk34ElmMT3qhyhON-4" value="&lt;div&gt;user db&lt;/div&gt;&lt;div&gt;RDBMS&lt;/div&gt;" style="shape=cylinder3;whiteSpace=wrap;html=1;boundedLbl=1;backgroundOutline=1;size=15;" vertex="1" parent="1">
          <mxGeometry x="400" y="70" width="80" height="80" as="geometry" />
        </mxCell>
        <mxCell id="dDHguk34ElmMT3qhyhON-20" value="" style="edgeStyle=orthogonalEdgeStyle;rounded=0;orthogonalLoop=1;jettySize=auto;html=1;entryX=0;entryY=0.5;entryDx=0;entryDy=0;entryPerimeter=0;startArrow=classic;startFill=1;" edge="1" parent="1" source="dDHguk34ElmMT3qhyhON-5" target="dDHguk34ElmMT3qhyhON-6">
          <mxGeometry relative="1" as="geometry" />
        </mxCell>
        <mxCell id="dDHguk34ElmMT3qhyhON-21" style="edgeStyle=orthogonalEdgeStyle;rounded=0;orthogonalLoop=1;jettySize=auto;html=1;startArrow=classic;startFill=1;" edge="1" parent="1" source="dDHguk34ElmMT3qhyhON-5" target="dDHguk34ElmMT3qhyhON-7">
          <mxGeometry relative="1" as="geometry" />
        </mxCell>
        <mxCell id="dDHguk34ElmMT3qhyhON-5" value="chat service" style="rounded=1;whiteSpace=wrap;html=1;" vertex="1" parent="1">
          <mxGeometry x="200" y="330" width="120" height="60" as="geometry" />
        </mxCell>
        <mxCell id="dDHguk34ElmMT3qhyhON-6" value="chat dynnamodb" style="shape=cylinder3;whiteSpace=wrap;html=1;boundedLbl=1;backgroundOutline=1;size=15;" vertex="1" parent="1">
          <mxGeometry x="400" y="280" width="80" height="80" as="geometry" />
        </mxCell>
        <mxCell id="dDHguk34ElmMT3qhyhON-32" style="edgeStyle=orthogonalEdgeStyle;rounded=0;orthogonalLoop=1;jettySize=auto;html=1;exitX=1;exitY=0;exitDx=0;exitDy=52.5;exitPerimeter=0;entryX=0.25;entryY=0;entryDx=0;entryDy=0;" edge="1" parent="1" source="dDHguk34ElmMT3qhyhON-7" target="dDHguk34ElmMT3qhyhON-11">
          <mxGeometry relative="1" as="geometry" />
        </mxCell>
        <mxCell id="dDHguk34ElmMT3qhyhON-33" style="edgeStyle=orthogonalEdgeStyle;rounded=0;orthogonalLoop=1;jettySize=auto;html=1;entryX=0.5;entryY=1;entryDx=0;entryDy=0;exitX=1;exitY=0;exitDx=0;exitDy=27.5;exitPerimeter=0;" edge="1" parent="1" source="dDHguk34ElmMT3qhyhON-7" target="dDHguk34ElmMT3qhyhON-30">
          <mxGeometry relative="1" as="geometry">
            <mxPoint x="540" y="370" as="targetPoint" />
            <Array as="points">
              <mxPoint x="600" y="418" />
            </Array>
          </mxGeometry>
        </mxCell>
        <mxCell id="dDHguk34ElmMT3qhyhON-7" value="chat user membership&lt;br&gt;RDBMS" style="shape=cylinder3;whiteSpace=wrap;html=1;boundedLbl=1;backgroundOutline=1;size=15;" vertex="1" parent="1">
          <mxGeometry x="400" y="390" width="80" height="80" as="geometry" />
        </mxCell>
        <mxCell id="dDHguk34ElmMT3qhyhON-19" value="" style="edgeStyle=orthogonalEdgeStyle;rounded=0;orthogonalLoop=1;jettySize=auto;html=1;" edge="1" parent="1" source="dDHguk34ElmMT3qhyhON-8" target="dDHguk34ElmMT3qhyhON-9">
          <mxGeometry relative="1" as="geometry" />
        </mxCell>
        <mxCell id="dDHguk34ElmMT3qhyhON-8" value="message service" style="rounded=1;whiteSpace=wrap;html=1;" vertex="1" parent="1">
          <mxGeometry x="200" y="510" width="120" height="60" as="geometry" />
        </mxCell>
        <mxCell id="dDHguk34ElmMT3qhyhON-17" value="" style="edgeStyle=orthogonalEdgeStyle;rounded=0;orthogonalLoop=1;jettySize=auto;html=1;entryX=0;entryY=0.5;entryDx=0;entryDy=0;" edge="1" parent="1" source="dDHguk34ElmMT3qhyhON-9" target="dDHguk34ElmMT3qhyhON-31">
          <mxGeometry relative="1" as="geometry">
            <mxPoint x="530" y="540" as="targetPoint" />
          </mxGeometry>
        </mxCell>
        <mxCell id="dDHguk34ElmMT3qhyhON-9" value="&lt;div&gt;message db&lt;/div&gt;&lt;div&gt;cassandra&lt;/div&gt;" style="shape=cylinder3;whiteSpace=wrap;html=1;boundedLbl=1;backgroundOutline=1;size=15;" vertex="1" parent="1">
          <mxGeometry x="400" y="500" width="80" height="80" as="geometry" />
        </mxCell>
        <mxCell id="dDHguk34ElmMT3qhyhON-48" style="edgeStyle=orthogonalEdgeStyle;rounded=0;orthogonalLoop=1;jettySize=auto;html=1;exitX=0.5;exitY=0;exitDx=0;exitDy=0;entryX=0.5;entryY=1;entryDx=0;entryDy=0;" edge="1" parent="1" source="dDHguk34ElmMT3qhyhON-10" target="dDHguk34ElmMT3qhyhON-8">
          <mxGeometry relative="1" as="geometry" />
        </mxCell>
        <mxCell id="dDHguk34ElmMT3qhyhON-10" value="Socket hub" style="rounded=1;whiteSpace=wrap;html=1;" vertex="1" parent="1">
          <mxGeometry x="200" y="660" width="120" height="60" as="geometry" />
        </mxCell>
        <mxCell id="dDHguk34ElmMT3qhyhON-13" style="edgeStyle=orthogonalEdgeStyle;rounded=0;orthogonalLoop=1;jettySize=auto;html=1;entryX=1;entryY=0.5;entryDx=0;entryDy=0;entryPerimeter=0;" edge="1" parent="1" source="dDHguk34ElmMT3qhyhON-11" target="dDHguk34ElmMT3qhyhON-38">
          <mxGeometry relative="1" as="geometry">
            <mxPoint x="520" y="660" as="targetPoint" />
            <Array as="points">
              <mxPoint x="760" y="690" />
            </Array>
          </mxGeometry>
        </mxCell>
        <mxCell id="dDHguk34ElmMT3qhyhON-25" style="edgeStyle=orthogonalEdgeStyle;rounded=0;orthogonalLoop=1;jettySize=auto;html=1;entryX=0.5;entryY=1;entryDx=0;entryDy=0;" edge="1" parent="1" source="dDHguk34ElmMT3qhyhON-11" target="dDHguk34ElmMT3qhyhON-23">
          <mxGeometry relative="1" as="geometry" />
        </mxCell>
        <mxCell id="dDHguk34ElmMT3qhyhON-26" style="edgeStyle=orthogonalEdgeStyle;rounded=0;orthogonalLoop=1;jettySize=auto;html=1;entryX=0.5;entryY=1;entryDx=0;entryDy=0;" edge="1" parent="1" source="dDHguk34ElmMT3qhyhON-11" target="dDHguk34ElmMT3qhyhON-24">
          <mxGeometry relative="1" as="geometry">
            <Array as="points">
              <mxPoint x="760" y="120" />
              <mxPoint x="590" y="120" />
            </Array>
          </mxGeometry>
        </mxCell>
        <mxCell id="dDHguk34ElmMT3qhyhON-11" value="Flink message processor" style="rounded=1;whiteSpace=wrap;html=1;" vertex="1" parent="1">
          <mxGeometry x="700" y="510" width="120" height="60" as="geometry" />
        </mxCell>
        <mxCell id="dDHguk34ElmMT3qhyhON-18" value="" style="edgeStyle=orthogonalEdgeStyle;rounded=0;orthogonalLoop=1;jettySize=auto;html=1;exitX=1;exitY=0.5;exitDx=0;exitDy=0;" edge="1" parent="1" source="dDHguk34ElmMT3qhyhON-31" target="dDHguk34ElmMT3qhyhON-11">
          <mxGeometry relative="1" as="geometry">
            <mxPoint x="650" y="540" as="sourcePoint" />
          </mxGeometry>
        </mxCell>
        <mxCell id="dDHguk34ElmMT3qhyhON-23" value="Firebase Push API" style="rounded=1;whiteSpace=wrap;html=1;" vertex="1" parent="1">
          <mxGeometry x="700" y="20" width="120" height="60" as="geometry" />
        </mxCell>
        <mxCell id="dDHguk34ElmMT3qhyhON-27" style="edgeStyle=orthogonalEdgeStyle;rounded=0;orthogonalLoop=1;jettySize=auto;html=1;" edge="1" parent="1" source="dDHguk34ElmMT3qhyhON-24" target="dDHguk34ElmMT3qhyhON-1">
          <mxGeometry relative="1" as="geometry" />
        </mxCell>
        <mxCell id="dDHguk34ElmMT3qhyhON-24" value="Apple Push API" style="rounded=1;whiteSpace=wrap;html=1;" vertex="1" parent="1">
          <mxGeometry x="530" y="20" width="120" height="60" as="geometry" />
        </mxCell>
        <mxCell id="dDHguk34ElmMT3qhyhON-28" style="edgeStyle=orthogonalEdgeStyle;rounded=0;orthogonalLoop=1;jettySize=auto;html=1;entryX=0.5;entryY=0;entryDx=0;entryDy=0;entryPerimeter=0;" edge="1" parent="1" source="dDHguk34ElmMT3qhyhON-23" target="dDHguk34ElmMT3qhyhON-1">
          <mxGeometry relative="1" as="geometry">
            <Array as="points">
              <mxPoint x="760" y="10" />
              <mxPoint x="25" y="10" />
            </Array>
          </mxGeometry>
        </mxCell>
        <mxCell id="dDHguk34ElmMT3qhyhON-29" value="User chat collection" style="shape=cylinder3;whiteSpace=wrap;html=1;boundedLbl=1;backgroundOutline=1;size=15;" vertex="1" parent="1">
          <mxGeometry x="400" y="170" width="80" height="80" as="geometry" />
        </mxCell>
        <mxCell id="dDHguk34ElmMT3qhyhON-30" value="CDC" style="shape=process;whiteSpace=wrap;html=1;backgroundOutline=1;" vertex="1" parent="1">
          <mxGeometry x="560" y="310" width="80" height="60" as="geometry" />
        </mxCell>
        <mxCell id="dDHguk34ElmMT3qhyhON-31" value="CDC" style="shape=process;whiteSpace=wrap;html=1;backgroundOutline=1;" vertex="1" parent="1">
          <mxGeometry x="560" y="510" width="80" height="60" as="geometry" />
        </mxCell>
        <mxCell id="dDHguk34ElmMT3qhyhON-34" style="edgeStyle=orthogonalEdgeStyle;rounded=0;orthogonalLoop=1;jettySize=auto;html=1;entryX=1;entryY=0.5;entryDx=0;entryDy=0;entryPerimeter=0;exitX=0.5;exitY=0;exitDx=0;exitDy=0;" edge="1" parent="1" source="dDHguk34ElmMT3qhyhON-30" target="dDHguk34ElmMT3qhyhON-29">
          <mxGeometry relative="1" as="geometry">
            <Array as="points">
              <mxPoint x="600" y="210" />
            </Array>
          </mxGeometry>
        </mxCell>
        <mxCell id="dDHguk34ElmMT3qhyhON-36" style="edgeStyle=orthogonalEdgeStyle;rounded=0;orthogonalLoop=1;jettySize=auto;html=1;exitX=0;exitY=0.5;exitDx=0;exitDy=0;entryX=1;entryY=0.5;entryDx=0;entryDy=0;exitPerimeter=0;" edge="1" parent="1" source="dDHguk34ElmMT3qhyhON-38" target="dDHguk34ElmMT3qhyhON-10">
          <mxGeometry relative="1" as="geometry">
            <mxPoint x="440" y="690" as="sourcePoint" />
          </mxGeometry>
        </mxCell>
        <mxCell id="dDHguk34ElmMT3qhyhON-38" value="&lt;div&gt;Redis&lt;/div&gt;&lt;div&gt;pub sub&lt;/div&gt;" style="shape=cylinder3;whiteSpace=wrap;html=1;boundedLbl=1;backgroundOutline=1;size=15;" vertex="1" parent="1">
          <mxGeometry x="400" y="650" width="80" height="80" as="geometry" />
        </mxCell>
        <mxCell id="dDHguk34ElmMT3qhyhON-40" style="edgeStyle=orthogonalEdgeStyle;rounded=0;orthogonalLoop=1;jettySize=auto;html=1;exitX=0.25;exitY=1;exitDx=0;exitDy=0;entryX=0.5;entryY=1;entryDx=0;entryDy=0;entryPerimeter=0;" edge="1" parent="1" source="dDHguk34ElmMT3qhyhON-11" target="dDHguk34ElmMT3qhyhON-9">
          <mxGeometry relative="1" as="geometry" />
        </mxCell>
        <mxCell id="dDHguk34ElmMT3qhyhON-41" value="Inbox messages" style="edgeLabel;html=1;align=center;verticalAlign=middle;resizable=0;points=[];" vertex="1" connectable="0" parent="dDHguk34ElmMT3qhyhON-40">
          <mxGeometry x="0.7176" y="5" relative="1" as="geometry">
            <mxPoint x="62" y="5" as="offset" />
          </mxGeometry>
        </mxCell>
        <mxCell id="dDHguk34ElmMT3qhyhON-42" value="Message cleanup job" style="rounded=1;whiteSpace=wrap;html=1;" vertex="1" parent="1">
          <mxGeometry x="640" y="850" width="120" height="60" as="geometry" />
        </mxCell>
        <mxCell id="dDHguk34ElmMT3qhyhON-43" style="edgeStyle=orthogonalEdgeStyle;rounded=0;orthogonalLoop=1;jettySize=auto;html=1;entryX=0.855;entryY=1;entryDx=0;entryDy=-4.35;entryPerimeter=0;startArrow=classic;startFill=1;dashed=1;dashPattern=1 4;" edge="1" parent="1" source="dDHguk34ElmMT3qhyhON-42" target="dDHguk34ElmMT3qhyhON-9">
          <mxGeometry relative="1" as="geometry">
            <Array as="points">
              <mxPoint x="690" y="640" />
              <mxPoint x="468" y="640" />
            </Array>
          </mxGeometry>
        </mxCell>
        <mxCell id="dDHguk34ElmMT3qhyhON-47" style="edgeStyle=orthogonalEdgeStyle;rounded=0;orthogonalLoop=1;jettySize=auto;html=1;entryX=0;entryY=0.5;entryDx=0;entryDy=0;startArrow=classic;startFill=1;dashed=1;dashPattern=1 4;" edge="1" parent="1" source="dDHguk34ElmMT3qhyhON-44" target="dDHguk34ElmMT3qhyhON-42">
          <mxGeometry relative="1" as="geometry" />
        </mxCell>
        <mxCell id="dDHguk34ElmMT3qhyhON-44" value="Object store" style="shape=cylinder3;whiteSpace=wrap;html=1;boundedLbl=1;backgroundOutline=1;size=15;" vertex="1" parent="1">
          <mxGeometry x="90" y="840" width="140" height="80" as="geometry" />
        </mxCell>
        <mxCell id="dDHguk34ElmMT3qhyhON-46" style="edgeStyle=orthogonalEdgeStyle;rounded=0;orthogonalLoop=1;jettySize=auto;html=1;entryX=0;entryY=0.5;entryDx=0;entryDy=0;entryPerimeter=0;" edge="1" parent="1" source="dDHguk34ElmMT3qhyhON-1" target="dDHguk34ElmMT3qhyhON-44">
          <mxGeometry relative="1" as="geometry">
            <Array as="points">
              <mxPoint x="40" y="870" />
            </Array>
          </mxGeometry>
        </mxCell>
      </root>
    </mxGraphModel>
  </diagram>
</mxfile>
